<svg width="27" height="27" viewBox="0 0 27 27" fill="none" xmlns="http://www.w3.org/2000/svg">
<path d="M20 16.75H5L0 21.75V1.75C0 1.41848 0.131696 1.10054 0.366116 0.866116C0.600537 0.631696 0.918479 0.5 1.25 0.5H20C20.3315 0.5 20.6495 0.631696 20.8839 0.866116C21.1183 1.10054 21.25 1.41848 21.25 1.75V15.5C21.25 15.8315 21.1183 16.1495 20.8839 16.3839C20.6495 16.6183 20.3315 16.75 20 16.75ZM26.25 9.25V26.75L21.25 21.75H7.5C7.16848 21.75 6.85054 21.6183 6.61612 21.3839C6.3817 21.1495 6.25 20.8315 6.25 20.5V19.25H23.75V8H25C25.3315 8 25.6495 8.1317 25.8839 8.36612C26.1183 8.60054 26.25 8.91848 26.25 9.25ZM7.7375 3C6.65 3 5.775 3.25 5.1 3.7375C4.45 4.25 4.125 4.9625 4.1375 5.95L4.15 5.9875H6.5625C6.575 5.6125 6.6875 5.325 6.9125 5.125C7.14397 4.93305 7.43687 4.83098 7.7375 4.8375C8.125 4.8375 8.45 4.9625 8.675 5.1875C8.9 5.425 9 5.75 9 6.125C9 6.525 8.9125 6.8625 8.7125 7.15C8.5375 7.4375 8.275 7.6875 7.95 7.8875C7.3125 8.3125 6.875 8.6875 6.6375 9.025C6.3875 9.35 6.25 9.875 6.25 10.5H8.75C8.75 10.1125 8.8 9.8 8.9125 9.575C9.025 9.35 9.2375 9.125 9.55 8.925C10.1125 8.625 10.575 8.2625 10.9375 7.7625C11.3 7.2625 11.4875 6.75 11.4875 6.125C11.4875 5.175 11.15 4.4125 10.475 3.85C9.8125 3.2875 8.9 3 7.7375 3ZM6.25 11.75V14.25H8.75V11.75H6.25ZM13.75 14.25H16.25V11.75H13.75V14.25ZM13.75 3V10.5H16.25V3H13.75Z" fill="black"/>
</svg>
