<svg width="29" height="24" viewBox="0 0 29 24" fill="none" xmlns="http://www.w3.org/2000/svg">
<path fill-rule="evenodd" clip-rule="evenodd" d="M14.5 1.54688C14.8256 1.23473 15.2145 0.986823 15.6439 0.817765C16.0732 0.648706 16.5343 0.561915 17 0.562503H25C25.743 0.562503 26.39 0.941253 26.734 1.50282C26.804 1.61625 26.83 1.74657 26.83 1.87782V4.02844L27.5 17.9063C27.5 18.5279 27.2366 19.124 26.7678 19.5635C26.2989 20.0031 25.663 20.25 25 20.25H4C3.33696 20.25 2.70107 20.0031 2.23223 19.5635C1.76339 19.124 1.5 18.5279 1.5 17.9063L2.17 4.02844V1.87782C2.17 1.74657 2.196 1.61625 2.266 1.50282C2.44124 1.21692 2.69384 0.979439 2.9983 0.81434C3.30275 0.64924 3.64828 0.562371 4 0.562503H12C12.98 0.562503 13.865 0.939378 14.5 1.54688Z" fill="#B4ACBC"/>
<path d="M16.232 22.125H27C27.83 22.125 28.501 21.4893 28.501 20.714V19.725C28.501 18.9496 27.831 17.4365 27 17.4365H2C1.171 17.4375 0.5 18.9506 0.5 19.7259V20.7234C0.5 21.4987 1.17 22.125 2.001 22.125H12.768C12.9435 22.41 13.196 22.6466 13.5 22.8112C13.8041 22.9757 14.1489 23.0624 14.5 23.0624C14.8511 23.0624 15.1959 22.9757 15.5 22.8112C15.804 22.6466 16.0565 22.41 16.232 22.125Z" fill="#A4A4A4"/>
<path fill-rule="evenodd" clip-rule="evenodd" d="M2.001 3.375H12.5V4.3125H16.5V3.375H26.999C27.829 3.375 28.5 4.00125 28.5 4.77656V19.7766C28.5 20.5519 27.83 21.1875 26.999 21.1875H16.232C16.0565 21.4725 15.804 21.7092 15.5 21.8737C15.1959 22.0383 14.8511 22.1249 14.5 22.1249C14.1489 22.1249 13.8041 22.0383 13.5 21.8737C13.196 21.7092 12.9435 21.4725 12.768 21.1875H2C1.171 21.1875 0.5 20.5612 0.5 19.7859V4.77656C0.5 4.00125 1.17 3.375 2.001 3.375ZM16 19.7812C16 20.1542 15.842 20.5119 15.5607 20.7756C15.2794 21.0393 14.8978 21.1875 14.5 21.1875C14.1022 21.1875 13.7206 21.0393 13.4393 20.7756C13.158 20.5119 13 20.1542 13 19.7812C13 19.4083 13.158 19.0506 13.4393 18.7869C13.7206 18.5232 14.1022 18.375 14.5 18.375C14.8978 18.375 15.2794 18.5232 15.5607 18.7869C15.842 19.0506 16 19.4083 16 19.7812Z" fill="black"/>
<path d="M11.5 1.5H4.303C4.05607 1.50002 3.81296 1.55719 3.59525 1.66643C3.37754 1.77568 3.19197 1.93363 3.055 2.12625L1.5 4.3125V17.9062C1.5 18.2792 1.65804 18.6369 1.93934 18.9006C2.22064 19.1643 2.60218 19.3125 3 19.3125H26C26.3978 19.3125 26.7794 19.1643 27.0607 18.9006C27.342 18.6369 27.5 18.2792 27.5 17.9062V4.3125L25.945 2.12625C25.808 1.93363 25.6225 1.77568 25.4048 1.66643C25.187 1.55719 24.9439 1.50002 24.697 1.5H17.5V4.3125H11.5V1.5Z" fill="#B4ACBC"/>
<path d="M4 1.5H12C12.663 1.5 13.2989 1.74693 13.7678 2.18647C14.2366 2.62601 14.5 3.22215 14.5 3.84375V19.3125L14.053 18.4744C13.8869 18.1627 13.6314 17.9006 13.3152 17.7174C12.999 17.5343 12.6347 17.4373 12.263 17.4375H4C3.73478 17.4375 3.48043 17.3387 3.29289 17.1629C3.10536 16.9871 3 16.7486 3 16.5V2.4375C3 2.18886 3.10536 1.9504 3.29289 1.77459C3.48043 1.59877 3.73478 1.5 4 1.5ZM17 1.5H25C25.2652 1.5 25.5196 1.59877 25.7071 1.77459C25.8946 1.9504 26 2.18886 26 2.4375V16.5C26 16.7486 25.8946 16.9871 25.7071 17.1629C25.5196 17.3387 25.2652 17.4375 25 17.4375H16.736C16.3836 17.4375 16.0374 17.5248 15.7325 17.6906C15.4277 17.8564 15.175 18.0948 15 18.3816V2.4375C15.456 1.86844 16.182 1.5 17 1.5Z" fill="#F3EEF8"/>
</svg>
