<svg width="24" height="14" viewBox="0 0 24 14" fill="none" xmlns="http://www.w3.org/2000/svg">
<rect y="0.0904541" width="23.4925" height="13.8191" rx="3.52764" fill="url(#paint0_linear_1_2687)"/>
<path d="M6.90567 5.64808C7.18897 5.64808 7.44028 5.71205 7.65961 5.83999C7.8835 5.96336 8.05942 6.14842 8.18736 6.39516C8.3153 6.63733 8.37927 6.92748 8.37927 7.26561V9.5H7.41972V7.40269C7.41972 7.10569 7.34432 6.87951 7.19354 6.72415C7.04275 6.56422 6.83713 6.48426 6.57668 6.48426C6.31623 6.48426 6.10833 6.56422 5.95297 6.72415C5.80219 6.87951 5.72679 7.10569 5.72679 7.40269V9.5H4.76038V5.70291H5.72679V6.27179C5.84559 6.07074 6.00552 5.91767 6.20657 5.81257C6.41219 5.70291 6.64522 5.64808 6.90567 5.64808ZM12.6758 7.54662C12.6758 7.67913 12.6667 7.8025 12.6484 7.91674H9.87943C9.90228 8.16348 9.99366 8.36224 10.1536 8.51303C10.3135 8.66382 10.5168 8.73921 10.7636 8.73921C10.9555 8.73921 11.1086 8.70266 11.2228 8.62955C11.337 8.55644 11.4307 8.45591 11.5038 8.32797H12.5456C12.436 8.68895 12.2235 8.98367 11.9082 9.21213C11.5929 9.4406 11.2114 9.55483 10.7636 9.55483C10.4026 9.55483 10.0805 9.47487 9.79718 9.31494C9.51389 9.15045 9.29228 8.92198 9.13235 8.62955C8.97242 8.33254 8.89246 7.98756 8.89246 7.5946C8.89246 7.20164 8.97242 6.85894 9.13235 6.56651C9.29228 6.27407 9.51389 6.04789 9.79718 5.88797C10.085 5.72804 10.4118 5.64808 10.7773 5.64808C11.1428 5.64808 11.4673 5.72576 11.7506 5.88111C12.0384 6.03647 12.2646 6.25808 12.4291 6.54595C12.5936 6.82924 12.6758 7.1628 12.6758 7.54662ZM11.6752 7.29303C11.6615 7.04172 11.5678 6.84067 11.3942 6.68988C11.2251 6.53909 11.0149 6.4637 10.7636 6.4637C10.5306 6.4637 10.3318 6.53909 10.1673 6.68988C10.0074 6.84067 9.91142 7.04172 9.87943 7.29303H11.6752ZM18.454 5.70291L17.2889 9.5H16.2608L15.6097 6.95033L14.9517 9.5H13.9236L12.7584 5.70291H13.7317L14.4308 8.58842L15.1299 5.70291H16.1443L16.8297 8.58157L17.5288 5.70291H18.454Z" fill="white"/>
<defs>
<linearGradient id="paint0_linear_1_2687" x1="0" y1="7.00001" x2="23.4925" y2="7.00001" gradientUnits="userSpaceOnUse">
<stop stop-color="#6565F1"/>
<stop offset="0.5" stop-color="#B152E9"/>
<stop offset="1" stop-color="#E9489D"/>
</linearGradient>
</defs>
</svg>
