<svg width="27" height="29" viewBox="0 0 27 29" fill="none" xmlns="http://www.w3.org/2000/svg">
<path d="M21.5 14V6.18625C21.5001 6.08758 21.4807 5.98987 21.4429 5.8987C21.4052 5.80754 21.3498 5.72473 21.28 5.655L17.345 1.72C17.2045 1.57931 17.0138 1.50018 16.815 1.5H2.25C2.05109 1.5 1.86032 1.57902 1.71967 1.71967C1.57902 1.86032 1.5 2.05109 1.5 2.25V25.75C1.5 25.9489 1.57902 26.1397 1.71967 26.2803C1.86032 26.421 2.05109 26.5 2.25 26.5H12.75M6.5 11.5H16.5M6.5 6.5H11.5M6.5 16.5H10.25" stroke="black" stroke-width="1.875" stroke-linecap="round" stroke-linejoin="round"/>
<path d="M16.5 1.5V5.75C16.5 5.94891 16.579 6.13968 16.7197 6.28033C16.8603 6.42098 17.0511 6.5 17.25 6.5H21.5M21.49 17.9062L24.685 18.7175C25.0175 18.8025 25.2513 19.105 25.2413 19.4475C25.0263 26.645 20.875 27.75 20.875 27.75C20.875 27.75 16.7237 26.645 16.5087 19.4475C16.5049 19.2808 16.5579 19.1177 16.6589 18.985C16.76 18.8524 16.9032 18.758 17.065 18.7175L20.26 17.9062C20.6637 17.8037 21.0863 17.8037 21.49 17.9062Z" stroke="black" stroke-width="1.875" stroke-linecap="round" stroke-linejoin="round"/>
</svg>
