<svg width="31" height="30" viewBox="0 0 31 30" fill="none" xmlns="http://www.w3.org/2000/svg">
<g clip-path="url(#clip0_3_5001)">
<path d="M11.9075 0.800049C12.2399 0.60781 12.6172 0.506592 13.0012 0.506592C13.3853 0.506592 13.7625 0.60781 14.095 0.800049L24.4075 6.75255C24.5362 6.82755 24.6562 6.91255 24.765 7.01005C24.8923 7.03798 25.0125 7.09218 25.1177 7.16917C25.2229 7.24616 25.3109 7.34426 25.3761 7.45719C25.4413 7.57012 25.4822 7.69541 25.4962 7.82504C25.5102 7.95467 25.497 8.0858 25.4575 8.21005C25.4862 8.3513 25.5012 8.49755 25.5012 8.64755V12.8125C25.5012 13.0612 25.4025 13.2996 25.2266 13.4755C25.0508 13.6513 24.8124 13.75 24.5637 13.75C24.3151 13.75 24.0766 13.6513 23.9008 13.4755C23.725 13.2996 23.6262 13.0612 23.6262 12.8125V9.55005L13.9387 15.1425V27.95C13.9388 28.1147 13.8956 28.2764 13.8134 28.419C13.7311 28.5616 13.6128 28.68 13.4702 28.7624C13.3277 28.8448 13.166 28.8881 13.0014 28.8881C12.8368 28.8882 12.675 28.8449 12.5325 28.7625L1.59498 22.4475C1.26254 22.2556 0.986461 21.9796 0.794474 21.6472C0.602486 21.3148 0.501353 20.9377 0.501234 20.5538V8.6463C0.501234 8.49755 0.516234 8.3513 0.544984 8.2088C0.505248 8.08455 0.491914 7.95338 0.505836 7.82368C0.519758 7.69398 0.560629 7.56862 0.625828 7.45564C0.691028 7.34266 0.779117 7.24455 0.884448 7.1676C0.98978 7.09065 1.11003 7.03656 1.23748 7.0088C1.34748 6.9113 1.46748 6.8263 1.59498 6.75255L11.9075 0.800049ZM13.0012 13.5163V13.5175L22.6887 7.92505L13.1575 2.42255C13.1101 2.39487 13.0561 2.38029 13.0012 2.38029C12.9463 2.38029 12.8924 2.39487 12.845 2.42255L3.31373 7.92505L13.0012 13.5163ZM2.37623 9.54755V20.5513C2.37623 20.6638 2.43623 20.7663 2.53248 20.8213L12.0637 26.3238V15.14L2.37623 9.54755Z" fill="black"/>
<path d="M21.2712 21.875L24.89 18.4975C25.0689 18.327 25.1733 18.0929 25.1805 17.8459C25.1877 17.5989 25.0971 17.3591 24.9284 17.1786C24.7598 16.998 24.5266 16.8914 24.2797 16.8818C24.0328 16.8722 23.7921 16.9605 23.61 17.1274L18.2537 22.1274C18.1599 22.2152 18.085 22.3212 18.0339 22.4391C17.9827 22.5569 17.9563 22.684 17.9563 22.8124C17.9563 22.9409 17.9827 23.068 18.0339 23.1858C18.085 23.3037 18.1599 23.4097 18.2537 23.4975L23.61 28.4974C23.6997 28.5829 23.8054 28.6497 23.9211 28.694C24.0368 28.7383 24.1601 28.7593 24.2839 28.7557C24.4077 28.7521 24.5296 28.724 24.6425 28.673C24.7554 28.622 24.857 28.5491 24.9416 28.4586C25.0262 28.3681 25.092 28.2617 25.1352 28.1457C25.1784 28.0296 25.1982 27.9061 25.1934 27.7823C25.1886 27.6585 25.1593 27.5369 25.1072 27.4245C25.0551 27.3121 24.9813 27.2111 24.89 27.1274L21.2712 23.7499H29.5625C29.8111 23.7499 30.0496 23.6512 30.2254 23.4754C30.4012 23.2995 30.5 23.0611 30.5 22.8124C30.5 22.5638 30.4012 22.3254 30.2254 22.1495C30.0496 21.9737 29.8111 21.875 29.5625 21.875H21.2712Z" fill="black"/>
</g>
<defs>
<clipPath id="clip0_3_5001">
<rect width="30" height="30" fill="white" transform="translate(0.5)"/>
</clipPath>
</defs>
</svg>
