<svg width="31" height="30" viewBox="0 0 31 30" fill="none" xmlns="http://www.w3.org/2000/svg">
<g clip-path="url(#clip0_3_4979)">
<path d="M29.6056 17.1561L22.1436 24.4218C21.2771 25.3007 19.9772 25.9218 18.6052 25.9218H12.9967C12.2866 25.9218 11.6487 26.1913 11.1793 26.6483L9.31382 28.3593H0.816772L8.98886 20.2968L8.97682 20.285C9.84338 19.4413 11.059 18.9139 12.3949 18.9022H20.4587C21.3132 18.9022 21.9992 19.5702 21.9992 20.4022C21.9992 21.2343 21.3132 21.9022 20.4587 21.9022H13.9595C13.6827 21.8788 13.454 22.1014 13.454 22.3944C13.454 22.6874 13.6827 22.8983 13.9715 22.8983H20.4346C21.1206 22.9218 21.7705 22.6405 22.2519 22.1718C22.7334 21.703 22.9981 21.0585 22.9981 20.4022C23.0222 20.0975 22.938 19.7694 22.8296 19.4882L27.4152 15.0233C28.029 14.4257 28.9918 14.4257 29.5936 14.9999C30.2194 15.5975 30.2074 16.5702 29.6056 17.1561ZM8.39912 9.60925C8.39912 5.24988 11.9857 1.71082 16.4629 1.71082C20.9401 1.71082 24.5507 5.22644 24.5507 9.58582C24.5507 13.9452 20.928 17.4608 16.4749 17.4608C12.0218 17.4608 8.39912 13.9452 8.39912 9.60925ZM17.534 11.4257C17.534 11.9647 17.0767 12.3632 16.15 12.3632C15.2834 12.3632 14.477 12.0702 13.9595 11.8241L13.5503 13.4178C14.0197 13.6757 14.9946 13.9218 15.9574 13.9218V15.1171H17.0767V13.8866C18.7135 13.535 19.4838 12.5858 19.4838 11.3553C19.4838 10.1249 18.7737 9.36316 17.2452 8.8241C16.1379 8.37878 15.6204 8.16785 15.6204 7.61707C15.6204 7.21863 16.0657 6.82019 16.8841 6.82019C17.7025 6.82019 18.3043 7.06628 18.6774 7.21863L19.1348 5.66003C18.6413 5.40222 17.9673 5.21472 17.0406 5.21472V3.99597H15.9213V5.29675C14.4289 5.58972 13.6105 6.52722 13.6105 7.73425C13.6105 9.03503 14.5372 9.7616 16.0176 10.2655C17.0887 10.6639 17.534 10.8866 17.534 11.4257Z" fill="black"/>
</g>
<defs>
<clipPath id="clip0_3_4979">
<rect width="30.8108" height="30" fill="white" transform="translate(0.0946045)"/>
</clipPath>
</defs>
</svg>
